<svg xmlns="http://www.w3.org/2000/svg" version="1.1" xmlns:xlink="http://www.w3.org/1999/xlink" width="512" height="512" x="0" y="0" viewBox="0 0 448 448" style="enable-background:new 0 0 512 512" xml:space="preserve" class=""><g><path fill-rule="evenodd" d="M32 248V80a23.97 23.97 0 0 1 7.032-16.968A23.97 23.97 0 0 1 56 56h192a23.97 23.97 0 0 1 16.968 7.032A23.97 23.97 0 0 1 272 80v168h16V104c0-13.256 10.744-24 24-24h89.056a24.01 24.01 0 0 1 22.368 15.304c3.832 9.848 9.768 25.12 14.784 38.016A143.972 143.972 0 0 1 448 185.512V336a23.97 23.97 0 0 1-7.032 16.968A23.97 23.97 0 0 1 424 360h-56.8c-3.712 18.248-19.864 32-39.2 32s-35.488-13.752-39.2-32H159.2c-3.712 18.248-19.864 32-39.2 32s-35.488-13.752-39.2-32H24c-13.256 0-24-10.744-24-24v-64c0-13.256 10.744-24 24-24zm296 80c13.248 0 24 10.752 24 24s-10.752 24-24 24-24-10.752-24-24 10.752-24 24-24zm-208 0c13.248 0 24 10.752 24 24s-10.752 24-24 24-24-10.752-24-24 10.752-24 24-24zm312-64H24c-4.416 0-8 3.584-8 8v64c0 4.416 3.584 8 8 8h56.8c3.712-18.248 19.864-32 39.2-32s35.488 13.752 39.2 32h129.6c3.712-18.248 19.864-32 39.2-32s35.488 13.752 39.2 32H424c2.12 0 4.16-.84 5.656-2.344A7.979 7.979 0 0 0 432 336zM184 72v56a8 8 0 0 1-12.76 6.432L152 120.176l-19.24 14.256A8 8 0 0 1 120 128V72H56c-2.12 0-4.16.84-5.656 2.344A7.979 7.979 0 0 0 48 80v168h208V80c0-2.12-.84-4.16-2.344-5.656A7.979 7.979 0 0 0 248 72zm248 176v-62.488c0-15.872-2.952-31.6-8.704-46.392-5.016-12.896-10.952-28.168-14.784-38.016A8.003 8.003 0 0 0 401.056 96H312c-4.416 0-8 3.584-8 8v144zm-24-80c0-26.512-21.488-48-48-48h-32c-4.416 0-8 3.584-8 8v88c0 4.416 3.584 8 8 8h72c4.416 0 8-3.584 8-8zm-72-32v72h56v-40c0-17.672-14.328-32-32-32zm-168-23.88V72h-32v40.12l11.24-8.328a7.993 7.993 0 0 1 9.52 0z" clip-rule="evenodd" fill="#fb5869" opacity="1" data-original="#000000" class=""></path></g></svg>