<svg xmlns="http://www.w3.org/2000/svg" version="1.1" xmlns:xlink="http://www.w3.org/1999/xlink" width="512" height="512" x="0" y="0" viewBox="0 0 64 64" style="enable-background:new 0 0 512 512" xml:space="preserve" class=""><g><path d="M8.109 33.455c2.856 5.6 5.022 10.675 6.762 14.756C18.538 56.81 20.751 62 25 62c4.507 0 5-3.523 5-11 0-9.248.906-10 2-10s2 .752 2 10c0 7.477.493 11 5 11 4.249 0 6.462-5.19 10.129-13.789 1.74-4.081 3.906-9.159 6.762-14.756l.335-.656C58 29.352 60 25.444 60 21c0-10.654-7.028-19-16-19a16.564 16.564 0 0 0-9.607 3.206 4.41 4.41 0 0 1-4.786 0A16.564 16.564 0 0 0 20 2C11.028 2 4 10.346 4 21c0 4.444 2.005 8.352 3.774 11.8ZM20 4a14.474 14.474 0 0 1 8.393 2.794 17.317 17.317 0 0 0 9.967 2.857A23.116 23.116 0 0 0 45.7 8.41l-.633-1.9a19.675 19.675 0 0 1-10.28.783 4.853 4.853 0 0 0 .819-.5A14.474 14.474 0 0 1 44 4c7.851 0 14 7.467 14 17 0 3.961-1.888 7.64-3.553 10.886l-.338.659c-2.887 5.66-5.067 10.773-6.819 14.881C44.061 55 41.928 60 39 60c-2.177 0-3-.776-3-9 0-8.462-.556-12-4-12s-4 3.538-4 12c0 8.224-.823 9-3 9-2.928 0-5.061-5-8.29-12.574-1.752-4.108-3.932-9.221-6.819-14.881l-.338-.659C7.888 28.64 6 24.961 6 21c0-9.533 6.149-17 14-17Z" fill="#4b58db" opacity="1" data-original="#000000" class=""></path><path d="M21 8V6C16.873 6 8.846 9.12 8 20.929l2 .142C10.916 8.212 20.592 8 21 8ZM8 23h2v2H8zM56 21h-2c0 .047-.095 4.816-4.814 11.423l1.628 1.162C55.941 26.4 56 21.217 56 21Z" fill="#4b58db" opacity="1" data-original="#000000" class=""></path></g></svg>