<svg xmlns="http://www.w3.org/2000/svg" version="1.1" xmlns:xlink="http://www.w3.org/1999/xlink" width="512" height="512" x="0" y="0" viewBox="0 0 605.654 605.654" style="enable-background:new 0 0 512 512" xml:space="preserve" class=""><g><path d="M494.618 60.571h80.752a29.473 29.473 0 0 0 21.268-8.812 29.908 29.908 0 0 0 8.893-24.105C603.78 11.754 590.235-.214 574.24.007H444.147c-22.299 0-40.376 18.077-40.376 40.376v524.891c0 22.299 18.077 40.376 40.376 40.376s40.376-18.077 40.376-40.376V393.675c0-5.575 4.519-10.094 10.094-10.094h80.752a29.473 29.473 0 0 0 21.268-8.812 29.91 29.91 0 0 0 8.893-24.105c-1.751-15.901-15.296-27.869-31.292-27.648h-79.622c-5.575 0-10.094-4.519-10.094-10.094v-10.094h100.941c5.575 0 10.094-4.519 10.094-10.094s-4.519-10.094-10.094-10.094h-100.94v-20.188h100.941c5.575 0 10.094-4.519 10.094-10.094s-4.519-10.094-10.094-10.094H484.523v-20.188h100.941c5.575 0 10.094-4.519 10.094-10.094s-4.519-10.094-10.094-10.094H484.523V181.7h100.941c5.575 0 10.094-4.519 10.094-10.094s-4.519-10.094-10.094-10.094H484.523v-20.188h100.941c5.575 0 10.094-4.519 10.094-10.094s-4.519-10.094-10.094-10.094H484.523v-20.188h100.941c5.575 0 10.094-4.519 10.094-10.094s-4.519-10.094-10.094-10.094H484.523V70.665c0-5.575 4.52-10.094 10.095-10.094zm0 282.634h79.622a10.933 10.933 0 0 1 11.225 9.165 9.885 9.885 0 0 1-3.028 8.075 9.676 9.676 0 0 1-7.066 2.947h-80.752c-16.724 0-30.282 13.558-30.282 30.282v171.599c0 11.15-9.039 20.188-20.188 20.188-11.15 0-20.188-9.039-20.188-20.188V40.383c0-11.15 9.039-20.188 20.188-20.188H574.24a10.933 10.933 0 0 1 11.225 9.165 9.886 9.886 0 0 1-3.028 8.126 9.683 9.683 0 0 1-7.066 2.897h-80.752c-16.724 0-30.282 13.558-30.282 30.282v242.257c-.002 16.725 13.556 30.283 30.281 30.283zM302.83 565.274c22.299 0 40.376-18.077 40.376-40.376V504.71c0-22.299-18.077-40.376-40.376-40.376s-40.376 18.077-40.376 40.376v20.188c0 22.299 18.077 40.376 40.376 40.376zm-20.188-60.564c0-11.15 9.039-20.188 20.188-20.188s20.188 9.039 20.188 20.188v20.188c0 11.15-9.039 20.188-20.188 20.188s-20.188-9.039-20.188-20.188zM80.761 565.274c22.299 0 40.376-18.077 40.376-40.376V504.71c0-22.299-18.077-40.376-40.376-40.376S40.385 482.41 40.385 504.71v20.188c0 22.299 18.077 40.376 40.376 40.376zM60.573 504.71c0-11.15 9.039-20.188 20.188-20.188s20.188 9.039 20.188 20.188v20.188c0 11.15-9.039 20.188-20.188 20.188s-20.188-9.039-20.188-20.188z" fill="#34deeb" opacity="1" data-original="#000000" class=""></path><path d="M78.127 605.65h2.372a78.837 78.837 0 0 0 55.144-22.772 85.447 85.447 0 0 0 25.871-60.938v-62.785a50.25 50.25 0 0 1 14.808-35.753l15.474-15.474 15.464 15.464a50.942 50.942 0 0 1 14.818 35.763v62.795a85.424 85.424 0 0 0 25.942 60.968 78.664 78.664 0 0 0 54.962 22.732h2.463c43.574-1.411 78.161-37.155 78.138-80.753V506.98a80.814 80.814 0 0 0-93.128-82.105 10.094 10.094 0 0 1-11.154-6.178l-40.063-101.526 82.963-211.592a86.526 86.526 0 0 0 6.955-33.815 76.494 76.494 0 0 0-35.329-68.64 19.848 19.848 0 0 0-16.837-2.11 20.278 20.278 0 0 0-12.628 11.77L191.796 196.78 119.199 12.705A20.244 20.244 0 0 0 106.46.956a19.715 19.715 0 0 0-16.716 2.19 76.523 76.523 0 0 0-35.329 68.64 85.972 85.972 0 0 0 6.854 33.563l83.084 211.723-40.073 101.626a9.981 9.981 0 0 1-11.285 6.147 81.804 81.804 0 0 0-17.594-.686C32.367 427.601-.613 463.844.008 507.011v17.887c.014 43.574 34.568 79.294 78.119 80.752zM282.925 20.104a56.698 56.698 0 0 1 26.063 51.661 66.613 66.613 0 0 1-5.461 26.245l-75.14 191.595-25.75-65.298zM74.584 71.806a56.81 56.81 0 0 1 25.861-51.611l160.082 405.923c5.25 13.208 18.979 20.988 33.008 18.704a60.747 60.747 0 0 1 13.365-.565c32.392 2.807 57.08 30.216 56.496 62.724v17.917c.018 32.676-25.888 59.475-58.546 60.564a59.14 59.14 0 0 1-42.738-16.978 65.108 65.108 0 0 1-19.845-46.534v-62.795a71.233 71.233 0 0 0-20.733-50.036l-24.418-24.418a51.97 51.97 0 0 1-10.659-15.525L79.943 97.757a66.307 66.307 0 0 1-5.359-25.951zM20.197 507.011c-.625-32.552 24.133-59.995 56.577-62.714 4.406-.3 8.832-.131 13.203.505 14.055 2.367 27.85-5.425 33.078-18.684l32.109-81.449 12.668 32.301a72.765 72.765 0 0 0 10.195 16.15l-15.979 15.979a70.267 70.267 0 0 0-20.723 50.056v62.785a65.12 65.12 0 0 1-19.744 46.433 59.996 59.996 0 0 1-42.839 17.089c-32.644-1.12-58.532-27.901-58.546-60.564v-17.887z" fill="#34deeb" opacity="1" data-original="#000000" class=""></path></g></svg>