<svg xmlns="http://www.w3.org/2000/svg" version="1.1" xmlns:xlink="http://www.w3.org/1999/xlink" width="512" height="512" x="0" y="0" viewBox="0 0 48 48" style="enable-background:new 0 0 512 512" xml:space="preserve" class=""><g><path d="M43.6 40.3c.2 0 .4 0 .6-.1.9-.2 1.7-.6 2.2-1.4 1.1-1.5.7-3.7-.8-4.8L25.5 19.9c.4-.8.7-1.6.9-2.4.4.3 1 .5 1.5.5.8 0 1.6-.4 2.1-1.1l2.2-3.1c.8-1.2.5-2.7-.6-3.6L19.2 1.5c-.6-.4-1.2-.6-1.9-.5s-1.3.5-1.7 1l-2.2 3.1c-.8 1.1-.5 2.7.6 3.6-3.3 2.4-5.6 5.8-6.8 9.6-1.1-.8-2.7-.5-3.6.6L1.4 22c-.8 1.1-.5 2.7.6 3.6l12.4 8.8c.4.3.9.5 1.5.5h.4c.7-.1 1.3-.5 1.7-1l2.2-3.1c.4-.6.5-1.2.4-1.9s-.5-1.3-1-1.7c.7-.5 1.3-1.1 1.9-1.7l20.1 14.2c.6.4 1.3.6 2 .6zm-25-10.7-2.2 3.1c-.1.1-.2.2-.4.2-.1 0-.3 0-.4-.1L3.2 24c-.2-.2-.3-.5-.1-.8l2.2-3.1c.1-.2.3-.2.5-.2.1 0 .2 0 .3.1l3.4 2.4 8.3 5.9.7.5c.1.1.2.2.2.4 0 .1 0 .2-.1.4zM15.1 6.3l2.2-3.1c.1-.1.2-.2.3-.2h.1c.1 0 .2 0 .3.1l12.4 8.8c.3.2.3.5.1.8l-2.2 3.1c-.2.2-.5.3-.8.1l-.5-.5-11.1-7.8-.6-.5c-.3-.2-.4-.5-.2-.8zm.7 3.7 8.9 6.3c-.3 1.2-.8 2.4-1.4 3.5-.7 1.4-1.6 2.6-2.6 3.7-.8.9-1.8 1.7-2.8 2.4L9 19.6c1-3.9 3.4-7.3 6.8-9.6zM23 23.9c.6-.7 1.1-1.4 1.6-2.2v-.1l19.8 14c.6.5.8 1.3.3 2-.2.3-.5.5-.9.6s-.7 0-1.1-.2L23 23.9c-.1.1-.1.1 0 0zM1.1 47h32.3l-4.2-8h-24zM28 41l2.1 4H4.4l2.1-4z" fill="#34deeb" opacity="1" data-original="#000000" class=""></path></g></svg>