<svg xmlns="http://www.w3.org/2000/svg" version="1.1" xmlns:xlink="http://www.w3.org/1999/xlink" width="512" height="512" x="0" y="0" viewBox="0 0 60 60" style="enable-background:new 0 0 512 512" xml:space="preserve" class=""><g><path d="M35.508 22.719a2.606 2.606 0 0 0-1.491 1.968 2.773 2.773 0 0 0 3.966-1.964 2.6 2.6 0 0 0-2.475-.004ZM24.49 22.718a2.6 2.6 0 0 0-2.473 0 2.773 2.773 0 0 0 3.966 1.964 2.607 2.607 0 0 0-1.493-1.964ZM32.989 30.091a.121.121 0 0 0-.13-.091h-5.718a.121.121 0 0 0-.13.091.119.119 0 0 0 .041.152L30 32.7l2.948-2.456a.119.119 0 0 0 .041-.153ZM41.737 17.225a.337.337 0 0 0-.151.453l1.135 2.088 1.526-.943c.005-.05.023-.1.023-.152a1.655 1.655 0 0 0-.388-1.062 1.775 1.775 0 0 0-2.145-.384ZM18.411 17.684a.337.337 0 0 0-.153-.461 1.77 1.77 0 0 0-2.137.382 1.661 1.661 0 0 0-.391 1.066c0 .049.018.1.023.152l1.526.943ZM30 39.643A3.994 3.994 0 0 1 27 41h-2.291l.193 1.959a1 1 0 0 0 .441.734l1.708 1.139A1 1 0 0 0 27.6 45h4.8a1 1 0 0 0 .552-.169l1.707-1.138a1 1 0 0 0 .441-.734L35.291 41H33a3.994 3.994 0 0 1-3-1.357Z" fill="#4787fa" opacity="1" data-original="#000000" class=""></path><path d="M52 15.977a15.609 15.609 0 0 1 2.915.331.891.891 0 0 0 .955-1.333c-2.244-3.717-8.012-11.038-17.869-8A8.786 8.786 0 0 1 38.44 4.4a.891.891 0 0 0-1.111-1.12A10.487 10.487 0 0 0 33 5.972a13.8 13.8 0 0 0-1.963-4.406 1.233 1.233 0 0 0-2.074 0A13.8 13.8 0 0 0 27 5.972a10.487 10.487 0 0 0-4.329-2.692.891.891 0 0 0-1.111 1.12A8.786 8.786 0 0 1 22 6.972c-9.857-3.035-15.625 4.286-17.869 8a.891.891 0 0 0 .955 1.333A15.609 15.609 0 0 1 8 15.977s-4 3-4 14.007a34.8 34.8 0 0 0 2.044 11.847.9.9 0 0 0 1.672 0A11.706 11.706 0 0 1 10 37.989 18.094 18.094 0 0 0 16.882 53.2a.9.9 0 0 0 1.376-.341A3.53 3.53 0 0 1 20 51s3.99 7 10 8c6.009-1 10-8 10-8a3.53 3.53 0 0 1 1.743 1.858.9.9 0 0 0 1.376.341A18.094 18.094 0 0 0 50 37.989a11.706 11.706 0 0 1 2.286 3.843.9.9 0 0 0 1.672 0A34.8 34.8 0 0 0 56 29.984c0-11.005-4-14.007-4-14.007Zm-5.477 3.791-2.843 1.757 2.2 4.048a3.6 3.6 0 0 1-.38 4.027l-4.95 6.072.164.813a2.992 2.992 0 0 1-1.278 3.086l-1.381.921a3.047 3.047 0 0 1-.744.356l-.227 2.3a2.987 2.987 0 0 1-1.321 2.2L34.059 46.5a2.994 2.994 0 0 1-1.659.5h-4.8a2.993 2.993 0 0 1-1.66-.5l-1.709-1.14a2.987 2.987 0 0 1-1.321-2.2l-.227-2.3a3.047 3.047 0 0 1-.744-.356l-1.381-.921a2.991 2.991 0 0 1-1.278-3.085l.163-.814-4.949-6.084a3.6 3.6 0 0 1-.371-4.032l2.2-4.045-2.838-1.754a5.288 5.288 0 0 1 5.036-9.269L30 15.9l11.475-5.4a5.308 5.308 0 0 1 6.825 2.168 5.276 5.276 0 0 1-1.779 7.1Z" fill="#4787fa" opacity="1" data-original="#000000" class=""></path><path d="m42.322 12.308-11.9 5.6a1 1 0 0 1-.852 0l-11.9-5.6a3.293 3.293 0 0 0-4.234 1.349 3.269 3.269 0 0 0 .473 3.9 3.722 3.722 0 0 1 .649-1.206 3.786 3.786 0 0 1 4.556-.936 2.338 2.338 0 0 1 1.048 3.227l-4.287 7.884a1.633 1.633 0 0 0 .164 1.808l3.911 4.8.066-.329a1 1 0 1 1 1.96.392L21.5 35.6v.006l-.257 1.277a1 1 0 0 0 .426 1.027l1.382.921a1 1 0 0 0 .554.168H27a2 2 0 0 0 2-2v-2.531l-3.228-2.688A2.138 2.138 0 0 1 27.141 28h5.718a2.138 2.138 0 0 1 1.369 3.78L31 34.468V37a2 2 0 0 0 2 2h3.4a1 1 0 0 0 .554-.168l1.382-.921a1 1 0 0 0 .426-1.028l-.262-1.277-.48-2.406a1 1 0 1 1 1.96-.392l.066.33 3.909-4.8a1.634 1.634 0 0 0 .168-1.806l-4.292-7.893a2.339 2.339 0 0 1 1.046-3.22 3.787 3.787 0 0 1 4.564.938 3.72 3.72 0 0 1 .647 1.2A3.264 3.264 0 0 0 47 15.292a3.216 3.216 0 0 0-.435-1.626 3.3 3.3 0 0 0-4.243-1.358Zm-15.2 14.034a4.646 4.646 0 0 1-4.493.144 4.6 4.6 0 0 1-2.61-3.631 1.824 1.824 0 0 1 .869-1.788 4.765 4.765 0 0 1 7.1 3.487 1.827 1.827 0 0 1-.87 1.788Zm12.867-3.486a4.6 4.6 0 0 1-2.608 3.628 4.64 4.64 0 0 1-4.484-.136 1.83 1.83 0 0 1-.878-1.794 4.765 4.765 0 0 1 7.092-3.492 1.828 1.828 0 0 1 .874 1.794Z" fill="#4787fa" opacity="1" data-original="#000000" class=""></path></g></svg>